<mxfile host="app.diagrams.net" modified="2023-06-12T03:21:54.355Z" agent="Mozilla/5.0 (Windows NT 10.0; Win64; x64) AppleWebKit/537.36 (KHTML, like Gecko) Chrome/114.0.0.0 Safari/537.36" etag="BqOQshKcM23RsW98c0vB" version="21.3.8" type="github">
  <diagram name="第 1 页" id="NS-F2zEvttwvpOeABiUR">
    <mxGraphModel dx="2074" dy="1156" grid="1" gridSize="10" guides="1" tooltips="1" connect="1" arrows="1" fold="1" page="1" pageScale="1" pageWidth="827" pageHeight="1169" math="0" shadow="0">
      <root>
        <mxCell id="0" />
        <mxCell id="1" parent="0" />
        <mxCell id="bpSFriUUABZxsV5Dr9gq-3" value="" style="edgeStyle=orthogonalEdgeStyle;rounded=0;orthogonalLoop=1;jettySize=auto;html=1;" parent="1" source="bpSFriUUABZxsV5Dr9gq-1" target="bpSFriUUABZxsV5Dr9gq-2" edge="1">
          <mxGeometry relative="1" as="geometry" />
        </mxCell>
        <mxCell id="bpSFriUUABZxsV5Dr9gq-1" value="分配库位并锁定" style="rounded=0;whiteSpace=wrap;html=1;" parent="1" vertex="1">
          <mxGeometry x="240" y="510" width="120" height="60" as="geometry" />
        </mxCell>
        <mxCell id="bpSFriUUABZxsV5Dr9gq-5" value="" style="edgeStyle=orthogonalEdgeStyle;rounded=0;orthogonalLoop=1;jettySize=auto;html=1;" parent="1" source="bpSFriUUABZxsV5Dr9gq-2" target="bpSFriUUABZxsV5Dr9gq-4" edge="1">
          <mxGeometry relative="1" as="geometry" />
        </mxCell>
        <mxCell id="bpSFriUUABZxsV5Dr9gq-2" value="校验托盘号" style="rounded=0;whiteSpace=wrap;html=1;" parent="1" vertex="1">
          <mxGeometry x="440" y="510" width="120" height="60" as="geometry" />
        </mxCell>
        <mxCell id="bpSFriUUABZxsV5Dr9gq-7" value="" style="edgeStyle=orthogonalEdgeStyle;rounded=0;orthogonalLoop=1;jettySize=auto;html=1;" parent="1" source="bpSFriUUABZxsV5Dr9gq-4" target="bpSFriUUABZxsV5Dr9gq-6" edge="1">
          <mxGeometry relative="1" as="geometry" />
        </mxCell>
        <mxCell id="bpSFriUUABZxsV5Dr9gq-4" value="获取策略信息" style="whiteSpace=wrap;html=1;rounded=0;" parent="1" vertex="1">
          <mxGeometry x="640" y="510" width="120" height="60" as="geometry" />
        </mxCell>
        <mxCell id="bpSFriUUABZxsV5Dr9gq-9" value="" style="edgeStyle=orthogonalEdgeStyle;rounded=0;orthogonalLoop=1;jettySize=auto;html=1;" parent="1" source="bpSFriUUABZxsV5Dr9gq-6" target="bpSFriUUABZxsV5Dr9gq-8" edge="1">
          <mxGeometry relative="1" as="geometry" />
        </mxCell>
        <mxCell id="bpSFriUUABZxsV5Dr9gq-6" value="校验策略存不存在" style="whiteSpace=wrap;html=1;rounded=0;" parent="1" vertex="1">
          <mxGeometry x="840" y="510" width="120" height="60" as="geometry" />
        </mxCell>
        <mxCell id="_fv-U34zqUDKWmmpQ8th-1" style="edgeStyle=orthogonalEdgeStyle;rounded=0;orthogonalLoop=1;jettySize=auto;html=1;entryX=0;entryY=0.5;entryDx=0;entryDy=0;" parent="1" source="bpSFriUUABZxsV5Dr9gq-8" target="bpSFriUUABZxsV5Dr9gq-14" edge="1">
          <mxGeometry relative="1" as="geometry">
            <mxPoint x="1370" y="540" as="targetPoint" />
          </mxGeometry>
        </mxCell>
        <mxCell id="bpSFriUUABZxsV5Dr9gq-8" value="校验空库位数量时候足够" style="whiteSpace=wrap;html=1;rounded=0;" parent="1" vertex="1">
          <mxGeometry x="1060" y="510" width="120" height="60" as="geometry" />
        </mxCell>
        <mxCell id="bpSFriUUABZxsV5Dr9gq-17" value="" style="edgeStyle=orthogonalEdgeStyle;rounded=0;orthogonalLoop=1;jettySize=auto;html=1;" parent="1" source="bpSFriUUABZxsV5Dr9gq-14" target="bpSFriUUABZxsV5Dr9gq-16" edge="1">
          <mxGeometry relative="1" as="geometry" />
        </mxCell>
        <mxCell id="bpSFriUUABZxsV5Dr9gq-14" value="获取库位" style="whiteSpace=wrap;html=1;rounded=0;" parent="1" vertex="1">
          <mxGeometry x="1290" y="510" width="120" height="60" as="geometry" />
        </mxCell>
        <mxCell id="bpSFriUUABZxsV5Dr9gq-19" value="" style="edgeStyle=orthogonalEdgeStyle;rounded=0;orthogonalLoop=1;jettySize=auto;html=1;" parent="1" source="bpSFriUUABZxsV5Dr9gq-16" target="bpSFriUUABZxsV5Dr9gq-18" edge="1">
          <mxGeometry relative="1" as="geometry" />
        </mxCell>
        <mxCell id="bpSFriUUABZxsV5Dr9gq-16" value="判断库位是否有锁" style="whiteSpace=wrap;html=1;rounded=0;" parent="1" vertex="1">
          <mxGeometry x="1480" y="510" width="120" height="60" as="geometry" />
        </mxCell>
        <mxCell id="bpSFriUUABZxsV5Dr9gq-25" value="" style="edgeStyle=orthogonalEdgeStyle;rounded=0;orthogonalLoop=1;jettySize=auto;html=1;" parent="1" source="bpSFriUUABZxsV5Dr9gq-18" target="bpSFriUUABZxsV5Dr9gq-24" edge="1">
          <mxGeometry relative="1" as="geometry" />
        </mxCell>
        <mxCell id="bpSFriUUABZxsV5Dr9gq-18" value="库位加锁" style="whiteSpace=wrap;html=1;rounded=0;" parent="1" vertex="1">
          <mxGeometry x="1690" y="510" width="120" height="60" as="geometry" />
        </mxCell>
        <mxCell id="bpSFriUUABZxsV5Dr9gq-24" value="返回库位信息" style="whiteSpace=wrap;html=1;rounded=0;" parent="1" vertex="1">
          <mxGeometry x="1890" y="510" width="120" height="60" as="geometry" />
        </mxCell>
        <mxCell id="bpSFriUUABZxsV5Dr9gq-34" value="" style="edgeStyle=orthogonalEdgeStyle;rounded=0;orthogonalLoop=1;jettySize=auto;html=1;entryX=0;entryY=0.5;entryDx=0;entryDy=0;" parent="1" source="bpSFriUUABZxsV5Dr9gq-35" target="bpSFriUUABZxsV5Dr9gq-51" edge="1">
          <mxGeometry relative="1" as="geometry">
            <mxPoint x="430" y="810" as="targetPoint" />
          </mxGeometry>
        </mxCell>
        <mxCell id="bpSFriUUABZxsV5Dr9gq-35" value="分配库位不锁定" style="rounded=0;whiteSpace=wrap;html=1;" parent="1" vertex="1">
          <mxGeometry x="230" y="780" width="120" height="60" as="geometry" />
        </mxCell>
        <mxCell id="bpSFriUUABZxsV5Dr9gq-62" style="edgeStyle=orthogonalEdgeStyle;rounded=0;orthogonalLoop=1;jettySize=auto;html=1;" parent="1" source="bpSFriUUABZxsV5Dr9gq-51" target="bpSFriUUABZxsV5Dr9gq-57" edge="1">
          <mxGeometry relative="1" as="geometry" />
        </mxCell>
        <mxCell id="bpSFriUUABZxsV5Dr9gq-51" value="获取库位" style="whiteSpace=wrap;html=1;rounded=0;" parent="1" vertex="1">
          <mxGeometry x="580" y="780" width="120" height="60" as="geometry" />
        </mxCell>
        <mxCell id="bpSFriUUABZxsV5Dr9gq-57" value="返回库位信息" style="whiteSpace=wrap;html=1;rounded=0;" parent="1" vertex="1">
          <mxGeometry x="850" y="780" width="120" height="60" as="geometry" />
        </mxCell>
      </root>
    </mxGraphModel>
  </diagram>
</mxfile>
